<?xml version="1.0" encoding="UTF-8" standalone="no"?>
<!DOCTYPE svg PUBLIC "-//W3C//DTD SVG 1.1//EN"
 "http://www.w3.org/Graphics/SVG/1.1/DTD/svg11.dtd">
<!-- Generated by graphviz version 2.38.0 (20140413.2041)
 -->
<!-- Title: G Pages: 1 -->
<svg width="1341pt" height="491pt"
 viewBox="0.00 0.00 1341.20 490.53" xmlns="http://www.w3.org/2000/svg" xmlns:xlink="http://www.w3.org/1999/xlink">
<g id="graph0" class="graph" transform="scale(1 1) rotate(0) translate(21.6 468.933)">
<title>G</title>
<polygon fill="#111111" stroke="none" points="-21.6,21.6 -21.6,-468.933 1319.6,-468.933 1319.6,21.6 -21.6,21.6"/>
<!-- client/overlay&#45;colors.js -->
<g id="node1" class="node"><title>client/overlay&#45;colors.js</title>
<path fill="none" stroke="#cfffac" d="M154.833,-174.333C154.833,-174.333 14.1667,-174.333 14.1667,-174.333 10.3333,-174.333 6.5,-170.5 6.5,-166.666 6.5,-166.666 6.5,-159 6.5,-159 6.5,-155.166 10.3333,-151.333 14.1667,-151.333 14.1667,-151.333 154.833,-151.333 154.833,-151.333 158.667,-151.333 162.5,-155.166 162.5,-159 162.5,-159 162.5,-166.666 162.5,-166.666 162.5,-170.5 158.667,-174.333 154.833,-174.333"/>
<text text-anchor="middle" x="84.5" y="-159.133" font-family="Arial" font-size="14.00" fill="#cfffac">client/overlay&#45;colors.js</text>
</g>
<!-- client/stream.js -->
<g id="node2" class="node"><title>client/stream.js</title>
<path fill="none" stroke="#cfffac" d="M132.333,-215.333C132.333,-215.333 36.6667,-215.333 36.6667,-215.333 32.8333,-215.333 29,-211.5 29,-207.666 29,-207.666 29,-200 29,-200 29,-196.166 32.8333,-192.333 36.6667,-192.333 36.6667,-192.333 132.333,-192.333 132.333,-192.333 136.167,-192.333 140,-196.166 140,-200 140,-200 140,-207.666 140,-207.666 140,-211.5 136.167,-215.333 132.333,-215.333"/>
<text text-anchor="middle" x="84.5" y="-200.133" font-family="Arial" font-size="14.00" fill="#cfffac">client/stream.js</text>
</g>
<!-- server/alerts&#45;manager.js -->
<g id="node3" class="node"><title>server/alerts&#45;manager.js</title>
<path fill="none" stroke="#ff6c60" d="M161.333,-256.333C161.333,-256.333 7.66667,-256.333 7.66667,-256.333 3.83333,-256.333 0,-252.5 0,-248.666 0,-248.666 0,-241 0,-241 0,-237.166 3.83333,-233.333 7.66667,-233.333 7.66667,-233.333 161.333,-233.333 161.333,-233.333 165.167,-233.333 169,-237.166 169,-241 169,-241 169,-248.666 169,-248.666 169,-252.5 165.167,-256.333 161.333,-256.333"/>
<text text-anchor="middle" x="84.5" y="-241.133" font-family="Arial" font-size="14.00" fill="#ff6c60">server/alerts&#45;manager.js</text>
</g>
<!-- server/config.js -->
<g id="node4" class="node"><title>server/config.js</title>
<path fill="none" stroke="#ff6c60" d="M355.833,-256.333C355.833,-256.333 258.167,-256.333 258.167,-256.333 254.333,-256.333 250.5,-252.5 250.5,-248.666 250.5,-248.666 250.5,-241 250.5,-241 250.5,-237.166 254.333,-233.333 258.167,-233.333 258.167,-233.333 355.833,-233.333 355.833,-233.333 359.667,-233.333 363.5,-237.166 363.5,-241 363.5,-241 363.5,-248.666 363.5,-248.666 363.5,-252.5 359.667,-256.333 355.833,-256.333"/>
<text text-anchor="middle" x="307" y="-241.133" font-family="Arial" font-size="14.00" fill="#ff6c60">server/config.js</text>
</g>
<!-- server/alerts&#45;manager.js&#45;&gt;server/config.js -->
<g id="edge1" class="edge"><title>server/alerts&#45;manager.js&#45;&gt;server/config.js</title>
<path fill="none" stroke="#757575" d="M169.176,-244.833C192.736,-244.833 218.018,-244.833 240.36,-244.833"/>
<polygon fill="#757575" stroke="#757575" points="240.401,-248.333 250.401,-244.833 240.401,-241.333 240.401,-248.333"/>
</g>
<!-- server/log.js -->
<g id="node5" class="node"><title>server/log.js</title>
<path fill="none" stroke="#ff6c60" d="M531.333,-336.333C531.333,-336.333 452.667,-336.333 452.667,-336.333 448.833,-336.333 445,-332.5 445,-328.666 445,-328.666 445,-321 445,-321 445,-317.166 448.833,-313.333 452.667,-313.333 452.667,-313.333 531.333,-313.333 531.333,-313.333 535.167,-313.333 539,-317.166 539,-321 539,-321 539,-328.666 539,-328.666 539,-332.5 535.167,-336.333 531.333,-336.333"/>
<text text-anchor="middle" x="492" y="-321.133" font-family="Arial" font-size="14.00" fill="#ff6c60">server/log.js</text>
</g>
<!-- server/alerts&#45;manager.js&#45;&gt;server/log.js -->
<g id="edge2" class="edge"><title>server/alerts&#45;manager.js&#45;&gt;server/log.js</title>
<path fill="none" stroke="#757575" d="M102.366,-256.494C124.69,-271.223 165.813,-295.957 205,-306.833 282.559,-328.359 376.314,-329.866 434.817,-328.06"/>
<polygon fill="#757575" stroke="#757575" points="435.092,-331.553 444.963,-327.703 434.845,-324.557 435.092,-331.553"/>
</g>
<!-- server/config.js&#45;&gt;server/log.js -->
<g id="edge5" class="edge"><title>server/config.js&#45;&gt;server/log.js</title>
<path fill="none" stroke="#757575" d="M363.541,-242.222C378.841,-244.973 395.053,-249.687 409,-256.833 428.317,-266.73 427.439,-277.077 445,-289.833 453.612,-296.089 463.867,-302.015 472.507,-307.463"/>
<polygon fill="#757575" stroke="#757575" points="470.83,-310.551 481.094,-313.18 474.71,-304.725 470.83,-310.551"/>
</g>
<!-- server/log.js&#45;&gt;server/config.js -->
<g id="edge19" class="edge"><title>server/log.js&#45;&gt;server/config.js</title>
<path fill="none" stroke="#757575" d="M452.912,-313.201C450.188,-311.471 447.524,-309.666 445,-307.833 427.439,-295.077 428.317,-284.73 409,-274.833 393.556,-266.921 375.335,-261.989 358.651,-258.428"/>
<polygon fill="#757575" stroke="#757575" points="358.995,-254.927 348.5,-256.373 357.606,-261.788 358.995,-254.927"/>
</g>
<!-- server/index.js -->
<g id="node13" class="node"><title>server/index.js</title>
<path fill="none" stroke="#ff6c60" d="M675.333,-141.333C675.333,-141.333 582.667,-141.333 582.667,-141.333 578.833,-141.333 575,-137.5 575,-133.666 575,-133.666 575,-126 575,-126 575,-122.166 578.833,-118.333 582.667,-118.333 582.667,-118.333 675.333,-118.333 675.333,-118.333 679.167,-118.333 683,-122.166 683,-126 683,-126 683,-133.666 683,-133.666 683,-137.5 679.167,-141.333 675.333,-141.333"/>
<text text-anchor="middle" x="629" y="-126.133" font-family="Arial" font-size="14.00" fill="#ff6c60">server/index.js</text>
</g>
<!-- server/log.js&#45;&gt;server/index.js -->
<g id="edge20" class="edge"><title>server/log.js&#45;&gt;server/index.js</title>
<path fill="none" stroke="#757575" d="M499.531,-313.289C512.824,-290.055 544.367,-236.249 575,-193.833 586.118,-178.439 599.814,-161.956 610.498,-149.573"/>
<polygon fill="#757575" stroke="#757575" points="613.412,-151.557 617.345,-141.72 608.135,-146.957 613.412,-151.557"/>
</g>
<!-- server/azure&#45;bot.js -->
<g id="node6" class="node"><title>server/azure&#45;bot.js</title>
<path fill="none" stroke="#ff6c60" d="M1080.83,-295.333C1080.83,-295.333 962.167,-295.333 962.167,-295.333 958.333,-295.333 954.5,-291.5 954.5,-287.666 954.5,-287.666 954.5,-280 954.5,-280 954.5,-276.166 958.333,-272.333 962.167,-272.333 962.167,-272.333 1080.83,-272.333 1080.83,-272.333 1084.67,-272.333 1088.5,-276.166 1088.5,-280 1088.5,-280 1088.5,-287.666 1088.5,-287.666 1088.5,-291.5 1084.67,-295.333 1080.83,-295.333"/>
<text text-anchor="middle" x="1021.5" y="-280.133" font-family="Arial" font-size="14.00" fill="#ff6c60">server/azure&#45;bot.js</text>
</g>
<!-- server/azure&#45;bot.js&#45;&gt;server/config.js -->
<g id="edge3" class="edge"><title>server/azure&#45;bot.js&#45;&gt;server/config.js</title>
<path fill="none" stroke="#757575" d="M954.331,-280.211C818.467,-272.774 509.443,-255.859 373.85,-248.438"/>
<polygon fill="#757575" stroke="#757575" points="373.788,-244.929 363.612,-247.877 373.406,-251.919 373.788,-244.929"/>
</g>
<!-- server/azure&#45;bot.js&#45;&gt;server/log.js -->
<g id="edge4" class="edge"><title>server/azure&#45;bot.js&#45;&gt;server/log.js</title>
<path fill="none" stroke="#757575" d="M954.295,-287.721C893.183,-291.429 799.924,-297.39 719,-303.833 661.118,-308.441 594.991,-314.702 549.289,-319.187"/>
<polygon fill="#757575" stroke="#757575" points="548.891,-315.709 539.283,-320.172 549.577,-322.675 548.891,-315.709"/>
</g>
<!-- server/discord&#45;bot.js -->
<g id="node7" class="node"><title>server/discord&#45;bot.js</title>
<path fill="none" stroke="#ff6c60" d="M1086.83,-25.3331C1086.83,-25.3331 956.167,-25.3331 956.167,-25.3331 952.333,-25.3331 948.5,-21.4998 948.5,-17.6665 948.5,-17.6665 948.5,-9.99979 948.5,-9.99979 948.5,-6.16646 952.333,-2.33312 956.167,-2.33312 956.167,-2.33312 1086.83,-2.33312 1086.83,-2.33312 1090.67,-2.33312 1094.5,-6.16646 1094.5,-9.99979 1094.5,-9.99979 1094.5,-17.6665 1094.5,-17.6665 1094.5,-21.4998 1090.67,-25.3331 1086.83,-25.3331"/>
<text text-anchor="middle" x="1021.5" y="-10.1331" font-family="Arial" font-size="14.00" fill="#ff6c60">server/discord&#45;bot.js</text>
</g>
<!-- server/discord&#45;bot.js&#45;&gt;server/config.js -->
<g id="edge6" class="edge"><title>server/discord&#45;bot.js&#45;&gt;server/config.js</title>
<path fill="none" stroke="#757575" d="M948.337,-5.35095C833.781,4.58846 606.749,9.64131 445,-80.8331 383.736,-115.101 338.193,-188.303 318.599,-224.167"/>
<polygon fill="#757575" stroke="#757575" points="315.384,-222.758 313.77,-233.229 321.562,-226.05 315.384,-222.758"/>
</g>
<!-- server/effects&#45;manager.js -->
<g id="node8" class="node"><title>server/effects&#45;manager.js</title>
<path fill="none" stroke="#ff6c60" d="M890.333,-335.333C890.333,-335.333 726.667,-335.333 726.667,-335.333 722.833,-335.333 719,-331.5 719,-327.666 719,-327.666 719,-320 719,-320 719,-316.166 722.833,-312.333 726.667,-312.333 726.667,-312.333 890.333,-312.333 890.333,-312.333 894.167,-312.333 898,-316.166 898,-320 898,-320 898,-327.666 898,-327.666 898,-331.5 894.167,-335.333 890.333,-335.333"/>
<text text-anchor="middle" x="808.5" y="-320.133" font-family="Arial" font-size="14.00" fill="#ff6c60">server/effects&#45;manager.js</text>
</g>
<!-- server/effects&#45;manager.js&#45;&gt;server/config.js -->
<g id="edge8" class="edge"><title>server/effects&#45;manager.js&#45;&gt;server/config.js</title>
<path fill="none" stroke="#757575" d="M734.703,-312.32C637.603,-296.962 467.122,-270 373.739,-255.23"/>
<polygon fill="#757575" stroke="#757575" points="374.269,-251.771 363.845,-253.665 373.175,-258.685 374.269,-251.771"/>
</g>
<!-- server/effects&#45;manager.js&#45;&gt;server/log.js -->
<g id="edge10" class="edge"><title>server/effects&#45;manager.js&#45;&gt;server/log.js</title>
<path fill="none" stroke="#757575" d="M718.822,-333.433C706.795,-334.426 694.604,-335.275 683,-335.833 635.055,-338.138 622.893,-339.031 575,-335.833 566.656,-335.276 557.867,-334.403 549.265,-333.388"/>
<polygon fill="#757575" stroke="#757575" points="549.65,-329.908 539.293,-332.14 548.781,-336.854 549.65,-329.908"/>
</g>
<!-- server/effects&#45;manager.js&#45;&gt;server/azure&#45;bot.js -->
<g id="edge7" class="edge"><title>server/effects&#45;manager.js&#45;&gt;server/azure&#45;bot.js</title>
<path fill="none" stroke="#757575" d="M870.247,-312.317C895.074,-307.61 923.961,-302.134 949.734,-297.248"/>
<polygon fill="#757575" stroke="#757575" points="950.644,-300.638 959.817,-295.337 949.34,-293.761 950.644,-300.638"/>
</g>
<!-- server/file&#45;manager.js -->
<g id="node9" class="node"><title>server/file&#45;manager.js</title>
<path fill="none" stroke="#cfffac" d="M1290.33,-335.333C1290.33,-335.333 1152.67,-335.333 1152.67,-335.333 1148.83,-335.333 1145,-331.5 1145,-327.666 1145,-327.666 1145,-320 1145,-320 1145,-316.166 1148.83,-312.333 1152.67,-312.333 1152.67,-312.333 1290.33,-312.333 1290.33,-312.333 1294.17,-312.333 1298,-316.166 1298,-320 1298,-320 1298,-327.666 1298,-327.666 1298,-331.5 1294.17,-335.333 1290.33,-335.333"/>
<text text-anchor="middle" x="1221.5" y="-320.133" font-family="Arial" font-size="14.00" fill="#cfffac">server/file&#45;manager.js</text>
</g>
<!-- server/effects&#45;manager.js&#45;&gt;server/file&#45;manager.js -->
<g id="edge9" class="edge"><title>server/effects&#45;manager.js&#45;&gt;server/file&#45;manager.js</title>
<path fill="none" stroke="#757575" d="M898.175,-323.833C968.238,-323.833 1065.43,-323.833 1134.73,-323.833"/>
<polygon fill="#757575" stroke="#757575" points="1134.74,-327.333 1144.74,-323.833 1134.74,-320.333 1134.74,-327.333"/>
</g>
<!-- server/obs&#45;manager.js -->
<g id="node10" class="node"><title>server/obs&#45;manager.js</title>
<path fill="none" stroke="#ff6c60" d="M1092.83,-447.333C1092.83,-447.333 950.167,-447.333 950.167,-447.333 946.333,-447.333 942.5,-443.5 942.5,-439.666 942.5,-439.666 942.5,-432 942.5,-432 942.5,-428.166 946.333,-424.333 950.167,-424.333 950.167,-424.333 1092.83,-424.333 1092.83,-424.333 1096.67,-424.333 1100.5,-428.166 1100.5,-432 1100.5,-432 1100.5,-439.666 1100.5,-439.666 1100.5,-443.5 1096.67,-447.333 1092.83,-447.333"/>
<text text-anchor="middle" x="1021.5" y="-432.133" font-family="Arial" font-size="14.00" fill="#ff6c60">server/obs&#45;manager.js</text>
</g>
<!-- server/effects&#45;manager.js&#45;&gt;server/obs&#45;manager.js -->
<g id="edge11" class="edge"><title>server/effects&#45;manager.js&#45;&gt;server/obs&#45;manager.js</title>
<path fill="none" stroke="#757575" d="M831.286,-335.397C869.053,-355.444 946.765,-396.694 989.921,-419.601"/>
<polygon fill="#757575" stroke="#757575" points="988.359,-422.735 998.833,-424.332 991.641,-416.552 988.359,-422.735"/>
</g>
<!-- server/overlay.js -->
<g id="node11" class="node"><title>server/overlay.js</title>
<path fill="none" stroke="#ff6c60" d="M1073.33,-222.333C1073.33,-222.333 969.667,-222.333 969.667,-222.333 965.833,-222.333 962,-218.5 962,-214.666 962,-214.666 962,-207 962,-207 962,-203.166 965.833,-199.333 969.667,-199.333 969.667,-199.333 1073.33,-199.333 1073.33,-199.333 1077.17,-199.333 1081,-203.166 1081,-207 1081,-207 1081,-214.666 1081,-214.666 1081,-218.5 1077.17,-222.333 1073.33,-222.333"/>
<text text-anchor="middle" x="1021.5" y="-207.133" font-family="Arial" font-size="14.00" fill="#ff6c60">server/overlay.js</text>
</g>
<!-- server/effects&#45;manager.js&#45;&gt;server/overlay.js -->
<g id="edge12" class="edge"><title>server/effects&#45;manager.js&#45;&gt;server/overlay.js</title>
<path fill="none" stroke="#757575" d="M831.286,-312.166C869.053,-291.94 946.765,-250.321 989.921,-227.21"/>
<polygon fill="#757575" stroke="#757575" points="991.669,-230.244 998.833,-222.437 988.365,-224.073 991.669,-230.244"/>
</g>
<!-- server/sound&#45;fx.js -->
<g id="node12" class="node"><title>server/sound&#45;fx.js</title>
<path fill="none" stroke="#ff6c60" d="M1078.33,-375.333C1078.33,-375.333 964.667,-375.333 964.667,-375.333 960.833,-375.333 957,-371.5 957,-367.666 957,-367.666 957,-360 957,-360 957,-356.166 960.833,-352.333 964.667,-352.333 964.667,-352.333 1078.33,-352.333 1078.33,-352.333 1082.17,-352.333 1086,-356.166 1086,-360 1086,-360 1086,-367.666 1086,-367.666 1086,-371.5 1082.17,-375.333 1078.33,-375.333"/>
<text text-anchor="middle" x="1021.5" y="-360.133" font-family="Arial" font-size="14.00" fill="#ff6c60">server/sound&#45;fx.js</text>
</g>
<!-- server/effects&#45;manager.js&#45;&gt;server/sound&#45;fx.js -->
<g id="edge13" class="edge"><title>server/effects&#45;manager.js&#45;&gt;server/sound&#45;fx.js</title>
<path fill="none" stroke="#757575" d="M870.247,-335.349C895.074,-340.056 923.961,-345.532 949.734,-350.418"/>
<polygon fill="#757575" stroke="#757575" points="949.34,-353.905 959.817,-352.329 950.644,-347.028 949.34,-353.905"/>
</g>
<!-- server/obs&#45;manager.js&#45;&gt;server/config.js -->
<g id="edge21" class="edge"><title>server/obs&#45;manager.js&#45;&gt;server/config.js</title>
<path fill="none" stroke="#757575" d="M942.411,-439.454C881.355,-441.164 794.466,-441.129 719,-431.833 592.322,-416.229 537.142,-434.154 445,-345.833 416.853,-318.853 439.404,-290.242 409,-265.833 398.817,-257.658 386.241,-252.436 373.462,-249.148"/>
<polygon fill="#757575" stroke="#757575" points="374.205,-245.728 363.686,-246.994 372.699,-252.564 374.205,-245.728"/>
</g>
<!-- server/obs&#45;manager.js&#45;&gt;server/log.js -->
<g id="edge22" class="edge"><title>server/obs&#45;manager.js&#45;&gt;server/log.js</title>
<path fill="none" stroke="#757575" d="M942.428,-433.047C851.869,-427.87 699.125,-413.08 575,-370.833 554.72,-363.931 533.682,-352.015 517.993,-342.041"/>
<polygon fill="#757575" stroke="#757575" points="519.707,-338.981 509.42,-336.446 515.881,-344.843 519.707,-338.981"/>
</g>
<!-- server/overlay.js&#45;&gt;server/index.js -->
<g id="edge23" class="edge"><title>server/overlay.js&#45;&gt;server/index.js</title>
<path fill="none" stroke="#757575" d="M966.547,-199.3C945.204,-194.759 920.453,-189.52 898,-184.833 827.857,-170.192 747.315,-153.707 692.989,-142.636"/>
<polygon fill="#757575" stroke="#757575" points="693.657,-139.2 683.159,-140.633 692.259,-146.059 693.657,-139.2"/>
</g>
<!-- server/sound&#45;fx.js&#45;&gt;server/log.js -->
<g id="edge34" class="edge"><title>server/sound&#45;fx.js&#45;&gt;server/log.js</title>
<path fill="none" stroke="#757575" d="M956.879,-367.478C869.938,-371.212 709.454,-373.651 575,-350.833 560.803,-348.424 545.667,-344.141 532.315,-339.738"/>
<polygon fill="#757575" stroke="#757575" points="533.091,-336.304 522.496,-336.376 530.824,-342.927 533.091,-336.304"/>
</g>
<!-- server/sound&#45;fx.js&#45;&gt;server/file&#45;manager.js -->
<g id="edge33" class="edge"><title>server/sound&#45;fx.js&#45;&gt;server/file&#45;manager.js</title>
<path fill="none" stroke="#757575" d="M1079.5,-352.317C1102.6,-347.652 1129.43,-342.231 1153.45,-337.378"/>
<polygon fill="#757575" stroke="#757575" points="1154.45,-340.748 1163.56,-335.337 1153.06,-333.887 1154.45,-340.748"/>
</g>
<!-- server/index.js&#45;&gt;server/alerts&#45;manager.js -->
<g id="edge14" class="edge"><title>server/index.js&#45;&gt;server/alerts&#45;manager.js</title>
<path fill="none" stroke="#757575" d="M574.766,-125.678C538.046,-123.894 488.247,-123.621 445,-130.833 317.32,-152.125 293.196,-187.353 169,-223.833 160.959,-226.195 152.436,-228.529 144.027,-230.735"/>
<polygon fill="#757575" stroke="#757575" points="143.052,-227.372 134.244,-233.26 144.801,-234.15 143.052,-227.372"/>
</g>
<!-- server/index.js&#45;&gt;server/config.js -->
<g id="edge15" class="edge"><title>server/index.js&#45;&gt;server/config.js</title>
<path fill="none" stroke="#757575" d="M574.841,-131.324C537.491,-133.812 486.917,-140.121 445,-155.833 400.141,-172.648 354.838,-206.018 329.205,-226.777"/>
<polygon fill="#757575" stroke="#757575" points="326.789,-224.233 321.295,-233.292 331.239,-229.636 326.789,-224.233"/>
</g>
<!-- server/index.js&#45;&gt;server/effects&#45;manager.js -->
<g id="edge16" class="edge"><title>server/index.js&#45;&gt;server/effects&#45;manager.js</title>
<path fill="none" stroke="#757575" d="M640.572,-141.388C670.037,-173.592 753.315,-264.611 789.896,-304.593"/>
<polygon fill="#757575" stroke="#757575" points="787.426,-307.079 796.759,-312.094 792.591,-302.353 787.426,-307.079"/>
</g>
<!-- server/server.js -->
<g id="node14" class="node"><title>server/server.js</title>
<path fill="none" stroke="#ff6c60" d="M857.833,-99.3331C857.833,-99.3331 759.167,-99.3331 759.167,-99.3331 755.333,-99.3331 751.5,-95.4998 751.5,-91.6665 751.5,-91.6665 751.5,-83.9998 751.5,-83.9998 751.5,-80.1665 755.333,-76.3331 759.167,-76.3331 759.167,-76.3331 857.833,-76.3331 857.833,-76.3331 861.667,-76.3331 865.5,-80.1665 865.5,-83.9998 865.5,-83.9998 865.5,-91.6665 865.5,-91.6665 865.5,-95.4998 861.667,-99.3331 857.833,-99.3331"/>
<text text-anchor="middle" x="808.5" y="-84.1331" font-family="Arial" font-size="14.00" fill="#ff6c60">server/server.js</text>
</g>
<!-- server/index.js&#45;&gt;server/server.js -->
<g id="edge17" class="edge"><title>server/index.js&#45;&gt;server/server.js</title>
<path fill="none" stroke="#757575" d="M678.973,-118.245C700.604,-113.127 726.211,-107.068 748.853,-101.71"/>
<polygon fill="#757575" stroke="#757575" points="749.762,-105.092 758.687,-99.3832 748.15,-98.2799 749.762,-105.092"/>
</g>
<!-- server/twitch&#45;chat.js -->
<g id="node15" class="node"><title>server/twitch&#45;chat.js</title>
<path fill="none" stroke="#ff6c60" d="M870.833,-217.333C870.833,-217.333 746.167,-217.333 746.167,-217.333 742.333,-217.333 738.5,-213.5 738.5,-209.666 738.5,-209.666 738.5,-202 738.5,-202 738.5,-198.166 742.333,-194.333 746.167,-194.333 746.167,-194.333 870.833,-194.333 870.833,-194.333 874.667,-194.333 878.5,-198.166 878.5,-202 878.5,-202 878.5,-209.666 878.5,-209.666 878.5,-213.5 874.667,-217.333 870.833,-217.333"/>
<text text-anchor="middle" x="808.5" y="-202.133" font-family="Arial" font-size="14.00" fill="#ff6c60">server/twitch&#45;chat.js</text>
</g>
<!-- server/index.js&#45;&gt;server/twitch&#45;chat.js -->
<g id="edge18" class="edge"><title>server/index.js&#45;&gt;server/twitch&#45;chat.js</title>
<path fill="none" stroke="#757575" d="M655.16,-141.337C664.086,-145.637 674.116,-150.723 683,-155.833 699.668,-165.422 701.576,-171.697 719,-179.833 728.346,-184.198 738.592,-188.012 748.694,-191.276"/>
<polygon fill="#757575" stroke="#757575" points="747.712,-194.636 758.3,-194.238 749.775,-187.947 747.712,-194.636"/>
</g>
<!-- server/server.js&#45;&gt;server/config.js -->
<g id="edge27" class="edge"><title>server/server.js&#45;&gt;server/config.js</title>
<path fill="none" stroke="#757575" d="M757.026,-76.3078C709.532,-67.3494 636.691,-58.489 575,-71.8331 467.957,-94.9872 366.556,-186.058 326.273,-225.947"/>
<polygon fill="#757575" stroke="#757575" points="323.621,-223.65 319.048,-233.207 328.583,-228.588 323.621,-223.65"/>
</g>
<!-- server/server.js&#45;&gt;server/log.js -->
<g id="edge29" class="edge"><title>server/server.js&#45;&gt;server/log.js</title>
<path fill="none" stroke="#757575" d="M751.351,-77.3897C700.205,-71.1772 625.208,-70.7417 575,-108.833 512.105,-156.55 497.451,-258.572 494.037,-303.191"/>
<polygon fill="#757575" stroke="#757575" points="490.54,-303.025 493.389,-313.23 497.526,-303.476 490.54,-303.025"/>
</g>
<!-- server/server.js&#45;&gt;server/discord&#45;bot.js -->
<g id="edge28" class="edge"><title>server/server.js&#45;&gt;server/discord&#45;bot.js</title>
<path fill="none" stroke="#757575" d="M832.868,-76.1683C857.522,-64.2276 897.749,-45.7753 934,-33.8331 940.393,-31.7269 947.123,-29.7573 953.887,-27.939"/>
<polygon fill="#757575" stroke="#757575" points="954.98,-31.2718 963.789,-25.3848 953.231,-24.4937 954.98,-31.2718"/>
</g>
<!-- server/routes/lights.js -->
<g id="node17" class="node"><title>server/routes/lights.js</title>
<path fill="none" stroke="#ff6c60" d="M1089.33,-148.333C1089.33,-148.333 953.667,-148.333 953.667,-148.333 949.833,-148.333 946,-144.5 946,-140.666 946,-140.666 946,-133 946,-133 946,-129.166 949.833,-125.333 953.667,-125.333 953.667,-125.333 1089.33,-125.333 1089.33,-125.333 1093.17,-125.333 1097,-129.166 1097,-133 1097,-133 1097,-140.666 1097,-140.666 1097,-144.5 1093.17,-148.333 1089.33,-148.333"/>
<text text-anchor="middle" x="1021.5" y="-133.133" font-family="Arial" font-size="14.00" fill="#ff6c60">server/routes/lights.js</text>
</g>
<!-- server/server.js&#45;&gt;server/routes/lights.js -->
<g id="edge30" class="edge"><title>server/server.js&#45;&gt;server/routes/lights.js</title>
<path fill="none" stroke="#757575" d="M859.237,-99.3834C889.58,-106.43 928.56,-115.482 960.595,-122.921"/>
<polygon fill="#757575" stroke="#757575" points="960.199,-126.423 970.732,-125.276 961.783,-119.604 960.199,-126.423"/>
</g>
<!-- server/routes/save&#45;css.js -->
<g id="node18" class="node"><title>server/routes/save&#45;css.js</title>
<path fill="none" stroke="#c6c5fe" d="M1101.33,-107.333C1101.33,-107.333 941.667,-107.333 941.667,-107.333 937.833,-107.333 934,-103.5 934,-99.6665 934,-99.6665 934,-91.9998 934,-91.9998 934,-88.1665 937.833,-84.3331 941.667,-84.3331 941.667,-84.3331 1101.33,-84.3331 1101.33,-84.3331 1105.17,-84.3331 1109,-88.1665 1109,-91.9998 1109,-91.9998 1109,-99.6665 1109,-99.6665 1109,-103.5 1105.17,-107.333 1101.33,-107.333"/>
<text text-anchor="middle" x="1021.5" y="-92.1331" font-family="Arial" font-size="14.00" fill="#c6c5fe">server/routes/save&#45;css.js</text>
</g>
<!-- server/server.js&#45;&gt;server/routes/save&#45;css.js -->
<g id="edge31" class="edge"><title>server/server.js&#45;&gt;server/routes/save&#45;css.js</title>
<path fill="none" stroke="#757575" d="M865.767,-89.9665C883.626,-90.6436 903.911,-91.4127 923.778,-92.1659"/>
<polygon fill="#757575" stroke="#757575" points="923.672,-95.6643 933.798,-92.5458 923.937,-88.6694 923.672,-95.6643"/>
</g>
<!-- server/routes/scenes.js -->
<g id="node19" class="node"><title>server/routes/scenes.js</title>
<path fill="none" stroke="#cfffac" d="M1095.83,-66.3331C1095.83,-66.3331 947.167,-66.3331 947.167,-66.3331 943.333,-66.3331 939.5,-62.4998 939.5,-58.6665 939.5,-58.6665 939.5,-50.9998 939.5,-50.9998 939.5,-47.1665 943.333,-43.3331 947.167,-43.3331 947.167,-43.3331 1095.83,-43.3331 1095.83,-43.3331 1099.67,-43.3331 1103.5,-47.1665 1103.5,-50.9998 1103.5,-50.9998 1103.5,-58.6665 1103.5,-58.6665 1103.5,-62.4998 1099.67,-66.3331 1095.83,-66.3331"/>
<text text-anchor="middle" x="1021.5" y="-51.1331" font-family="Arial" font-size="14.00" fill="#cfffac">server/routes/scenes.js</text>
</g>
<!-- server/server.js&#45;&gt;server/routes/scenes.js -->
<g id="edge32" class="edge"><title>server/server.js&#45;&gt;server/routes/scenes.js</title>
<path fill="none" stroke="#757575" d="M865.767,-79.0331C887.558,-75.6249 912.963,-71.6518 936.812,-67.9218"/>
<polygon fill="#757575" stroke="#757575" points="937.583,-71.3438 946.922,-66.3405 936.502,-64.4278 937.583,-71.3438"/>
</g>
<!-- server/twitch&#45;chat.js&#45;&gt;server/config.js -->
<g id="edge35" class="edge"><title>server/twitch&#45;chat.js&#45;&gt;server/config.js</title>
<path fill="none" stroke="#757575" d="M738.307,-210.321C665.333,-215.165 547.019,-223.335 445,-231.833 421.772,-233.768 396.352,-236.116 373.783,-238.281"/>
<polygon fill="#757575" stroke="#757575" points="373.25,-234.817 363.633,-239.261 373.923,-241.784 373.25,-234.817"/>
</g>
<!-- server/twitch&#45;chat.js&#45;&gt;server/log.js -->
<g id="edge36" class="edge"><title>server/twitch&#45;chat.js&#45;&gt;server/log.js</title>
<path fill="none" stroke="#757575" d="M744.902,-217.337C696.983,-227.488 629.996,-244.63 575,-269.833 553.436,-279.715 531.226,-294.983 515.369,-306.928"/>
<polygon fill="#757575" stroke="#757575" points="513.05,-304.296 507.257,-313.167 517.318,-309.845 513.05,-304.296"/>
</g>
<!-- server/permission&#45;manager.js -->
<g id="node16" class="node"><title>server/permission&#45;manager.js</title>
<path fill="none" stroke="#c6c5fe" d="M401.333,-297.333C401.333,-297.333 212.667,-297.333 212.667,-297.333 208.833,-297.333 205,-293.5 205,-289.666 205,-289.666 205,-282 205,-282 205,-278.166 208.833,-274.333 212.667,-274.333 212.667,-274.333 401.333,-274.333 401.333,-274.333 405.167,-274.333 409,-278.166 409,-282 409,-282 409,-289.666 409,-289.666 409,-293.5 405.167,-297.333 401.333,-297.333"/>
<text text-anchor="middle" x="307" y="-282.133" font-family="Arial" font-size="14.00" fill="#c6c5fe">server/permission&#45;manager.js</text>
</g>
<!-- server/permission&#45;manager.js&#45;&gt;server/log.js -->
<g id="edge24" class="edge"><title>server/permission&#45;manager.js&#45;&gt;server/log.js</title>
<path fill="none" stroke="#757575" d="M362.411,-297.429C385.263,-302.299 411.831,-307.961 434.865,-312.87"/>
<polygon fill="#757575" stroke="#757575" points="434.325,-316.333 444.835,-314.995 435.784,-309.487 434.325,-316.333"/>
</g>
<!-- server/routes/lights.js&#45;&gt;server/index.js -->
<g id="edge25" class="edge"><title>server/routes/lights.js&#45;&gt;server/index.js</title>
<path fill="none" stroke="#757575" d="M945.822,-135.494C872.655,-134.183 762.37,-132.206 693.362,-130.969"/>
<polygon fill="#757575" stroke="#757575" points="693.132,-127.464 683.071,-130.784 693.007,-134.463 693.132,-127.464"/>
</g>
<!-- server/routes/save&#45;css.js&#45;&gt;server/file&#45;manager.js -->
<g id="edge26" class="edge"><title>server/routes/save&#45;css.js&#45;&gt;server/file&#45;manager.js</title>
<path fill="none" stroke="#757575" d="M1095.01,-107.486C1099.98,-109.8 1104.72,-112.556 1109,-115.833 1172.47,-164.38 1203.94,-259.674 1215.34,-302.315"/>
<polygon fill="#757575" stroke="#757575" points="1211.99,-303.369 1217.87,-312.189 1218.78,-301.633 1211.99,-303.369"/>
</g>
</g>
</svg>
