<?xml version="1.0" encoding="UTF-8" standalone="no"?>
<!DOCTYPE svg PUBLIC "-//W3C//DTD SVG 1.1//EN"
 "http://www.w3.org/Graphics/SVG/1.1/DTD/svg11.dtd">
<!-- Generated by graphviz version 2.38.0 (20140413.2041)
 -->
<!-- Title: G Pages: 1 -->
<svg width="1048pt" height="659pt"
 viewBox="0.00 0.00 1048.20 658.68" xmlns="http://www.w3.org/2000/svg" xmlns:xlink="http://www.w3.org/1999/xlink">
<g id="graph0" class="graph" transform="scale(1 1) rotate(0) translate(21.6 637.079)">
<title>G</title>
<polygon fill="#111111" stroke="none" points="-21.6,21.6 -21.6,-637.079 1026.6,-637.079 1026.6,21.6 -21.6,21.6"/>
<!-- client/overlay&#45;colors.js -->
<g id="node1" class="node"><title>client/overlay&#45;colors.js</title>
<path fill="none" stroke="#cfffac" d="M148.333,-422.918C148.333,-422.918 7.66667,-422.918 7.66667,-422.918 3.83333,-422.918 0,-419.084 0,-415.251 0,-415.251 0,-407.584 0,-407.584 0,-403.751 3.83333,-399.918 7.66667,-399.918 7.66667,-399.918 148.333,-399.918 148.333,-399.918 152.167,-399.918 156,-403.751 156,-407.584 156,-407.584 156,-415.251 156,-415.251 156,-419.084 152.167,-422.918 148.333,-422.918"/>
<text text-anchor="middle" x="78" y="-407.718" font-family="Arial" font-size="14.00" fill="#cfffac">client/overlay&#45;colors.js</text>
</g>
<!-- client/stream.js -->
<g id="node2" class="node"><title>client/stream.js</title>
<path fill="none" stroke="#cfffac" d="M125.833,-463.918C125.833,-463.918 30.1667,-463.918 30.1667,-463.918 26.3333,-463.918 22.5,-460.084 22.5,-456.251 22.5,-456.251 22.5,-448.584 22.5,-448.584 22.5,-444.751 26.3333,-440.918 30.1667,-440.918 30.1667,-440.918 125.833,-440.918 125.833,-440.918 129.667,-440.918 133.5,-444.751 133.5,-448.584 133.5,-448.584 133.5,-456.251 133.5,-456.251 133.5,-460.084 129.667,-463.918 125.833,-463.918"/>
<text text-anchor="middle" x="78" y="-448.718" font-family="Arial" font-size="14.00" fill="#cfffac">client/stream.js</text>
</g>
<!-- server/alerts&#45;manager.js -->
<g id="node3" class="node"><title>server/alerts&#45;manager.js</title>
<path fill="none" stroke="#c6c5fe" d="M353.333,-504.918C353.333,-504.918 199.667,-504.918 199.667,-504.918 195.833,-504.918 192,-501.084 192,-497.251 192,-497.251 192,-489.584 192,-489.584 192,-485.751 195.833,-481.918 199.667,-481.918 199.667,-481.918 353.333,-481.918 353.333,-481.918 357.167,-481.918 361,-485.751 361,-489.584 361,-489.584 361,-497.251 361,-497.251 361,-501.084 357.167,-504.918 353.333,-504.918"/>
<text text-anchor="middle" x="276.5" y="-489.718" font-family="Arial" font-size="14.00" fill="#c6c5fe">server/alerts&#45;manager.js</text>
</g>
<!-- server/config.js -->
<g id="node4" class="node"><title>server/config.js</title>
<path fill="none" stroke="#cfffac" d="M977.333,-427.918C977.333,-427.918 879.667,-427.918 879.667,-427.918 875.833,-427.918 872,-424.084 872,-420.251 872,-420.251 872,-412.584 872,-412.584 872,-408.751 875.833,-404.918 879.667,-404.918 879.667,-404.918 977.333,-404.918 977.333,-404.918 981.167,-404.918 985,-408.751 985,-412.584 985,-412.584 985,-420.251 985,-420.251 985,-424.084 981.167,-427.918 977.333,-427.918"/>
<text text-anchor="middle" x="928.5" y="-412.718" font-family="Arial" font-size="14.00" fill="#cfffac">server/config.js</text>
</g>
<!-- server/alerts&#45;manager.js&#45;&gt;server/config.js -->
<g id="edge1" class="edge"><title>server/alerts&#45;manager.js&#45;&gt;server/config.js</title>
<path fill="none" stroke="#757575" d="M307.392,-505.008C391.586,-535.747 636.253,-611.871 816,-534.418 862.278,-514.476 898.3,-464.834 915.819,-436.703"/>
<polygon fill="#757575" stroke="#757575" points="918.865,-438.431 921.039,-428.061 912.873,-434.811 918.865,-438.431"/>
</g>
<!-- server/log.js -->
<g id="node5" class="node"><title>server/log.js</title>
<path fill="none" stroke="#cfffac" d="M967.833,-251.918C967.833,-251.918 889.167,-251.918 889.167,-251.918 885.333,-251.918 881.5,-248.084 881.5,-244.251 881.5,-244.251 881.5,-236.584 881.5,-236.584 881.5,-232.751 885.333,-228.918 889.167,-228.918 889.167,-228.918 967.833,-228.918 967.833,-228.918 971.667,-228.918 975.5,-232.751 975.5,-236.584 975.5,-236.584 975.5,-244.251 975.5,-244.251 975.5,-248.084 971.667,-251.918 967.833,-251.918"/>
<text text-anchor="middle" x="928.5" y="-236.718" font-family="Arial" font-size="14.00" fill="#cfffac">server/log.js</text>
</g>
<!-- server/alerts&#45;manager.js&#45;&gt;server/log.js -->
<g id="edge2" class="edge"><title>server/alerts&#45;manager.js&#45;&gt;server/log.js</title>
<path fill="none" stroke="#757575" d="M345.75,-481.898C451.658,-461.986 659.652,-414.637 816,-327.418 850.984,-307.901 886.666,-277.923 907.945,-258.746"/>
<polygon fill="#757575" stroke="#757575" points="910.341,-261.298 915.364,-251.969 905.62,-256.129 910.341,-261.298"/>
</g>
<!-- server/azure&#45;bot.js -->
<g id="node6" class="node"><title>server/azure&#45;bot.js</title>
<path fill="none" stroke="#c6c5fe" d="M773.333,-251.918C773.333,-251.918 654.667,-251.918 654.667,-251.918 650.833,-251.918 647,-248.084 647,-244.251 647,-244.251 647,-236.584 647,-236.584 647,-232.751 650.833,-228.918 654.667,-228.918 654.667,-228.918 773.333,-228.918 773.333,-228.918 777.167,-228.918 781,-232.751 781,-236.584 781,-236.584 781,-244.251 781,-244.251 781,-248.084 777.167,-251.918 773.333,-251.918"/>
<text text-anchor="middle" x="714" y="-236.718" font-family="Arial" font-size="14.00" fill="#c6c5fe">server/azure&#45;bot.js</text>
</g>
<!-- server/azure&#45;bot.js&#45;&gt;server/config.js -->
<g id="edge3" class="edge"><title>server/azure&#45;bot.js&#45;&gt;server/config.js</title>
<path fill="none" stroke="#757575" d="M781.087,-246.074C793.345,-249.132 805.56,-253.684 816,-260.418 867.973,-293.941 903.233,-360.966 918.666,-395.212"/>
<polygon fill="#757575" stroke="#757575" points="915.606,-396.951 922.816,-404.715 922.021,-394.15 915.606,-396.951"/>
</g>
<!-- server/azure&#45;bot.js&#45;&gt;server/log.js -->
<g id="edge4" class="edge"><title>server/azure&#45;bot.js&#45;&gt;server/log.js</title>
<path fill="none" stroke="#757575" d="M781.071,-240.418C809.917,-240.418 843.395,-240.418 871.054,-240.418"/>
<polygon fill="#757575" stroke="#757575" points="871.348,-243.918 881.348,-240.418 871.348,-236.918 871.348,-243.918"/>
</g>
<!-- server/discord&#45;bot.js -->
<g id="node7" class="node"><title>server/discord&#45;bot.js</title>
<path fill="none" stroke="#c6c5fe" d="M551.833,-406.918C551.833,-406.918 421.167,-406.918 421.167,-406.918 417.333,-406.918 413.5,-403.084 413.5,-399.251 413.5,-399.251 413.5,-391.584 413.5,-391.584 413.5,-387.751 417.333,-383.918 421.167,-383.918 421.167,-383.918 551.833,-383.918 551.833,-383.918 555.667,-383.918 559.5,-387.751 559.5,-391.584 559.5,-391.584 559.5,-399.251 559.5,-399.251 559.5,-403.084 555.667,-406.918 551.833,-406.918"/>
<text text-anchor="middle" x="486.5" y="-391.718" font-family="Arial" font-size="14.00" fill="#c6c5fe">server/discord&#45;bot.js</text>
</g>
<!-- server/discord&#45;bot.js&#45;&gt;server/config.js -->
<g id="edge5" class="edge"><title>server/discord&#45;bot.js&#45;&gt;server/config.js</title>
<path fill="none" stroke="#757575" d="M559.664,-398.862C643.483,-402.862 780.587,-409.406 861.624,-413.274"/>
<polygon fill="#757575" stroke="#757575" points="861.551,-416.774 871.706,-413.755 861.884,-409.782 861.551,-416.774"/>
</g>
<!-- server/effects&#45;manager.js -->
<g id="node8" class="node"><title>server/effects&#45;manager.js</title>
<path fill="none" stroke="#c6c5fe" d="M568.333,-251.918C568.333,-251.918 404.667,-251.918 404.667,-251.918 400.833,-251.918 397,-248.084 397,-244.251 397,-244.251 397,-236.584 397,-236.584 397,-232.751 400.833,-228.918 404.667,-228.918 404.667,-228.918 568.333,-228.918 568.333,-228.918 572.167,-228.918 576,-232.751 576,-236.584 576,-236.584 576,-244.251 576,-244.251 576,-248.084 572.167,-251.918 568.333,-251.918"/>
<text text-anchor="middle" x="486.5" y="-236.718" font-family="Arial" font-size="14.00" fill="#c6c5fe">server/effects&#45;manager.js</text>
</g>
<!-- server/effects&#45;manager.js&#45;&gt;server/config.js -->
<g id="edge7" class="edge"><title>server/effects&#45;manager.js&#45;&gt;server/config.js</title>
<path fill="none" stroke="#757575" d="M508.738,-251.935C533.242,-265.002 574.928,-286.552 612,-302.418 706.084,-342.683 819.655,-381.383 881.635,-401.695"/>
<polygon fill="#757575" stroke="#757575" points="880.902,-405.137 891.494,-404.914 883.074,-398.483 880.902,-405.137"/>
</g>
<!-- server/effects&#45;manager.js&#45;&gt;server/log.js -->
<g id="edge9" class="edge"><title>server/effects&#45;manager.js&#45;&gt;server/log.js</title>
<path fill="none" stroke="#757575" d="M561.136,-228.822C566.474,-226.258 571.513,-223.159 576,-219.418 606.569,-193.928 578.676,-159.182 612,-137.418 687.911,-87.8399 731.564,-104.387 816,-137.418 858.622,-154.092 894.73,-195.546 913.546,-220.485"/>
<polygon fill="#757575" stroke="#757575" points="910.942,-222.852 919.676,-228.849 916.588,-218.714 910.942,-222.852"/>
</g>
<!-- server/effects&#45;manager.js&#45;&gt;server/azure&#45;bot.js -->
<g id="edge6" class="edge"><title>server/effects&#45;manager.js&#45;&gt;server/azure&#45;bot.js</title>
<path fill="none" stroke="#757575" d="M576.3,-240.418C596.346,-240.418 617.451,-240.418 636.92,-240.418"/>
<polygon fill="#757575" stroke="#757575" points="636.937,-243.918 646.937,-240.418 636.937,-236.918 636.937,-243.918"/>
</g>
<!-- server/file&#45;manager.js -->
<g id="node9" class="node"><title>server/file&#45;manager.js</title>
<path fill="none" stroke="#cfffac" d="M997.333,-49.9177C997.333,-49.9177 859.667,-49.9177 859.667,-49.9177 855.833,-49.9177 852,-46.0843 852,-42.251 852,-42.251 852,-34.5843 852,-34.5843 852,-30.751 855.833,-26.9177 859.667,-26.9177 859.667,-26.9177 997.333,-26.9177 997.333,-26.9177 1001.17,-26.9177 1005,-30.751 1005,-34.5843 1005,-34.5843 1005,-42.251 1005,-42.251 1005,-46.0843 1001.17,-49.9177 997.333,-49.9177"/>
<text text-anchor="middle" x="928.5" y="-34.7177" font-family="Arial" font-size="14.00" fill="#cfffac">server/file&#45;manager.js</text>
</g>
<!-- server/effects&#45;manager.js&#45;&gt;server/file&#45;manager.js -->
<g id="edge8" class="edge"><title>server/effects&#45;manager.js&#45;&gt;server/file&#45;manager.js</title>
<path fill="none" stroke="#757575" d="M563.639,-228.822C568.156,-226.232 572.342,-223.129 576,-219.418 627.779,-166.892 555.881,-105.278 612,-57.4177 645.383,-28.9476 760.165,-28.6317 841.629,-32.4055"/>
<polygon fill="#757575" stroke="#757575" points="841.729,-35.9146 851.889,-32.9103 842.073,-28.9231 841.729,-35.9146"/>
</g>
<!-- server/obs&#45;manager.js -->
<g id="node10" class="node"><title>server/obs&#45;manager.js</title>
<path fill="none" stroke="#c6c5fe" d="M785.333,-292.918C785.333,-292.918 642.667,-292.918 642.667,-292.918 638.833,-292.918 635,-289.084 635,-285.251 635,-285.251 635,-277.584 635,-277.584 635,-273.751 638.833,-269.918 642.667,-269.918 642.667,-269.918 785.333,-269.918 785.333,-269.918 789.167,-269.918 793,-273.751 793,-277.584 793,-277.584 793,-285.251 793,-285.251 793,-289.084 789.167,-292.918 785.333,-292.918"/>
<text text-anchor="middle" x="714" y="-277.718" font-family="Arial" font-size="14.00" fill="#c6c5fe">server/obs&#45;manager.js</text>
</g>
<!-- server/effects&#45;manager.js&#45;&gt;server/obs&#45;manager.js -->
<g id="edge10" class="edge"><title>server/effects&#45;manager.js&#45;&gt;server/obs&#45;manager.js</title>
<path fill="none" stroke="#757575" d="M550.914,-251.948C578.532,-256.969 611.068,-262.885 639.715,-268.093"/>
<polygon fill="#757575" stroke="#757575" points="639.206,-271.558 649.671,-269.903 640.459,-264.671 639.206,-271.558"/>
</g>
<!-- server/overlay.js -->
<g id="node11" class="node"><title>server/overlay.js</title>
<path fill="none" stroke="#cfffac" d="M765.833,-169.918C765.833,-169.918 662.167,-169.918 662.167,-169.918 658.333,-169.918 654.5,-166.084 654.5,-162.251 654.5,-162.251 654.5,-154.584 654.5,-154.584 654.5,-150.751 658.333,-146.918 662.167,-146.918 662.167,-146.918 765.833,-146.918 765.833,-146.918 769.667,-146.918 773.5,-150.751 773.5,-154.584 773.5,-154.584 773.5,-162.251 773.5,-162.251 773.5,-166.084 769.667,-169.918 765.833,-169.918"/>
<text text-anchor="middle" x="714" y="-154.718" font-family="Arial" font-size="14.00" fill="#cfffac">server/overlay.js</text>
</g>
<!-- server/effects&#45;manager.js&#45;&gt;server/overlay.js -->
<g id="edge11" class="edge"><title>server/effects&#45;manager.js&#45;&gt;server/overlay.js</title>
<path fill="none" stroke="#757575" d="M555.889,-228.768C562.931,-226.239 569.776,-223.162 576,-219.418 596.779,-206.917 590.99,-190.527 612,-178.418 621.882,-172.722 633.113,-168.623 644.405,-165.679"/>
<polygon fill="#757575" stroke="#757575" points="645.364,-169.049 654.313,-163.377 643.781,-162.231 645.364,-169.049"/>
</g>
<!-- server/sound&#45;fx.js -->
<g id="node12" class="node"><title>server/sound&#45;fx.js</title>
<path fill="none" stroke="#c6c5fe" d="M770.833,-89.9177C770.833,-89.9177 657.167,-89.9177 657.167,-89.9177 653.333,-89.9177 649.5,-86.0843 649.5,-82.251 649.5,-82.251 649.5,-74.5843 649.5,-74.5843 649.5,-70.751 653.333,-66.9177 657.167,-66.9177 657.167,-66.9177 770.833,-66.9177 770.833,-66.9177 774.667,-66.9177 778.5,-70.751 778.5,-74.5843 778.5,-74.5843 778.5,-82.251 778.5,-82.251 778.5,-86.0843 774.667,-89.9177 770.833,-89.9177"/>
<text text-anchor="middle" x="714" y="-74.7177" font-family="Arial" font-size="14.00" fill="#c6c5fe">server/sound&#45;fx.js</text>
</g>
<!-- server/effects&#45;manager.js&#45;&gt;server/sound&#45;fx.js -->
<g id="edge12" class="edge"><title>server/effects&#45;manager.js&#45;&gt;server/sound&#45;fx.js</title>
<path fill="none" stroke="#757575" d="M562.45,-228.913C567.365,-226.316 571.957,-223.186 576,-219.418 615.18,-182.903 573.168,-141.302 612,-104.418 619.84,-96.9709 629.518,-91.5835 639.751,-87.7001"/>
<polygon fill="#757575" stroke="#757575" points="640.879,-91.0133 649.267,-84.5404 638.673,-84.3699 640.879,-91.0133"/>
</g>
<!-- server/obs&#45;manager.js&#45;&gt;server/config.js -->
<g id="edge18" class="edge"><title>server/obs&#45;manager.js&#45;&gt;server/config.js</title>
<path fill="none" stroke="#757575" d="M733.254,-292.967C753.488,-305.774 787.088,-327.052 816,-345.418 844.943,-363.803 878.083,-384.913 900.662,-399.304"/>
<polygon fill="#757575" stroke="#757575" points="899.04,-402.421 909.354,-404.845 902.803,-396.519 899.04,-402.421"/>
</g>
<!-- server/obs&#45;manager.js&#45;&gt;server/log.js -->
<g id="edge19" class="edge"><title>server/obs&#45;manager.js&#45;&gt;server/log.js</title>
<path fill="none" stroke="#757575" d="M774.759,-269.888C804.957,-264.061 841.396,-257.031 871.108,-251.298"/>
<polygon fill="#757575" stroke="#757575" points="872.16,-254.66 881.316,-249.328 870.834,-247.786 872.16,-254.66"/>
</g>
<!-- server/sound&#45;fx.js&#45;&gt;server/log.js -->
<g id="edge30" class="edge"><title>server/sound&#45;fx.js&#45;&gt;server/log.js</title>
<path fill="none" stroke="#757575" d="M778.7,-88.3034C791.679,-92.0669 804.782,-97.2584 816,-104.418 862.681,-134.208 899.183,-190.051 916.499,-220.078"/>
<polygon fill="#757575" stroke="#757575" points="913.482,-221.854 921.435,-228.854 919.583,-218.422 913.482,-221.854"/>
</g>
<!-- server/sound&#45;fx.js&#45;&gt;server/file&#45;manager.js -->
<g id="edge29" class="edge"><title>server/sound&#45;fx.js&#45;&gt;server/file&#45;manager.js</title>
<path fill="none" stroke="#757575" d="M776.179,-66.9017C801.183,-62.195 830.275,-56.7189 856.231,-51.833"/>
<polygon fill="#757575" stroke="#757575" points="857.205,-55.2111 866.385,-49.9216 855.91,-48.332 857.205,-55.2111"/>
</g>
<!-- server/index.js -->
<g id="node13" class="node"><title>server/index.js</title>
<path fill="none" stroke="#c6c5fe" d="M124.333,-504.918C124.333,-504.918 31.6667,-504.918 31.6667,-504.918 27.8333,-504.918 24,-501.084 24,-497.251 24,-497.251 24,-489.584 24,-489.584 24,-485.751 27.8333,-481.918 31.6667,-481.918 31.6667,-481.918 124.333,-481.918 124.333,-481.918 128.167,-481.918 132,-485.751 132,-489.584 132,-489.584 132,-497.251 132,-497.251 132,-501.084 128.167,-504.918 124.333,-504.918"/>
<text text-anchor="middle" x="78" y="-489.718" font-family="Arial" font-size="14.00" fill="#c6c5fe">server/index.js</text>
</g>
<!-- server/index.js&#45;&gt;server/alerts&#45;manager.js -->
<g id="edge13" class="edge"><title>server/index.js&#45;&gt;server/alerts&#45;manager.js</title>
<path fill="none" stroke="#757575" d="M132.176,-493.418C147.568,-493.418 164.844,-493.418 181.932,-493.418"/>
<polygon fill="#757575" stroke="#757575" points="181.955,-496.918 191.955,-493.418 181.955,-489.918 181.955,-496.918"/>
</g>
<!-- server/index.js&#45;&gt;server/config.js -->
<g id="edge14" class="edge"><title>server/index.js&#45;&gt;server/config.js</title>
<path fill="none" stroke="#757575" d="M104.275,-505.015C202.176,-548.125 563.498,-690.328 816,-564.418 869.485,-537.747 904.063,-471.842 919.008,-437.694"/>
<polygon fill="#757575" stroke="#757575" points="922.353,-438.769 923.014,-428.195 915.903,-436.048 922.353,-438.769"/>
</g>
<!-- server/index.js&#45;&gt;server/log.js -->
<g id="edge15" class="edge"><title>server/index.js&#45;&gt;server/log.js</title>
<path fill="none" stroke="#757575" d="M132.013,-487.814C140.968,-484.735 149.464,-480.162 156,-473.418 206.421,-421.384 159.254,-379.051 192,-314.418 254.79,-190.481 273.54,-142.14 397,-78.4177 562.688,7.09973 653.435,33.8966 816,-57.4177 878.529,-92.5408 910.112,-178.536 921.898,-218.871"/>
<polygon fill="#757575" stroke="#757575" points="918.532,-219.83 924.592,-228.521 925.274,-217.949 918.532,-219.83"/>
</g>
<!-- server/server.js -->
<g id="node14" class="node"><title>server/server.js</title>
<path fill="none" stroke="#c6c5fe" d="M325.833,-345.918C325.833,-345.918 227.167,-345.918 227.167,-345.918 223.333,-345.918 219.5,-342.084 219.5,-338.251 219.5,-338.251 219.5,-330.584 219.5,-330.584 219.5,-326.751 223.333,-322.918 227.167,-322.918 227.167,-322.918 325.833,-322.918 325.833,-322.918 329.667,-322.918 333.5,-326.751 333.5,-330.584 333.5,-330.584 333.5,-338.251 333.5,-338.251 333.5,-342.084 329.667,-345.918 325.833,-345.918"/>
<text text-anchor="middle" x="276.5" y="-330.718" font-family="Arial" font-size="14.00" fill="#c6c5fe">server/server.js</text>
</g>
<!-- server/index.js&#45;&gt;server/server.js -->
<g id="edge16" class="edge"><title>server/index.js&#45;&gt;server/server.js</title>
<path fill="none" stroke="#757575" d="M132.119,-484.173C140.47,-481.456 148.733,-477.948 156,-473.418 204.983,-442.885 244.541,-385.845 263.443,-355.184"/>
<polygon fill="#757575" stroke="#757575" points="266.678,-356.595 268.839,-346.223 260.682,-352.984 266.678,-356.595"/>
</g>
<!-- server/twitch&#45;chat.js -->
<g id="node15" class="node"><title>server/twitch&#45;chat.js</title>
<path fill="none" stroke="#c6c5fe" d="M776.333,-524.918C776.333,-524.918 651.667,-524.918 651.667,-524.918 647.833,-524.918 644,-521.084 644,-517.251 644,-517.251 644,-509.584 644,-509.584 644,-505.751 647.833,-501.918 651.667,-501.918 651.667,-501.918 776.333,-501.918 776.333,-501.918 780.167,-501.918 784,-505.751 784,-509.584 784,-509.584 784,-517.251 784,-517.251 784,-521.084 780.167,-524.918 776.333,-524.918"/>
<text text-anchor="middle" x="714" y="-509.718" font-family="Arial" font-size="14.00" fill="#c6c5fe">server/twitch&#45;chat.js</text>
</g>
<!-- server/index.js&#45;&gt;server/twitch&#45;chat.js -->
<g id="edge17" class="edge"><title>server/index.js&#45;&gt;server/twitch&#45;chat.js</title>
<path fill="none" stroke="#757575" d="M129.911,-504.934C149.244,-508.764 171.534,-512.532 192,-514.418 347.872,-528.778 531.091,-523.266 633.453,-518.187"/>
<polygon fill="#757575" stroke="#757575" points="633.899,-521.669 643.709,-517.666 633.544,-514.678 633.899,-521.669"/>
</g>
<!-- server/server.js&#45;&gt;server/config.js -->
<g id="edge22" class="edge"><title>server/server.js&#45;&gt;server/config.js</title>
<path fill="none" stroke="#757575" d="M289.091,-345.972C309.064,-364.982 352.158,-402.168 397,-416.418 557.6,-467.451 759.621,-445.536 861.818,-428.878"/>
<polygon fill="#757575" stroke="#757575" points="862.7,-432.28 871.989,-427.184 861.549,-425.375 862.7,-432.28"/>
</g>
<!-- server/server.js&#45;&gt;server/log.js -->
<g id="edge25" class="edge"><title>server/server.js&#45;&gt;server/log.js</title>
<path fill="none" stroke="#757575" d="M333.74,-334.23C452.839,-333.321 726.869,-328.378 816,-302.418 848.521,-292.946 881.978,-272.665 903.646,-257.869"/>
<polygon fill="#757575" stroke="#757575" points="905.702,-260.703 911.898,-252.109 901.695,-254.963 905.702,-260.703"/>
</g>
<!-- server/server.js&#45;&gt;server/discord&#45;bot.js -->
<g id="edge23" class="edge"><title>server/server.js&#45;&gt;server/discord&#45;bot.js</title>
<path fill="none" stroke="#757575" d="M308.16,-345.963C332.129,-354.738 366.403,-366.739 397,-375.418 404.459,-377.533 412.321,-379.575 420.155,-381.492"/>
<polygon fill="#757575" stroke="#757575" points="419.492,-384.932 430.032,-383.851 421.119,-378.124 419.492,-384.932"/>
</g>
<!-- server/server.js&#45;&gt;server/effects&#45;manager.js -->
<g id="edge24" class="edge"><title>server/server.js&#45;&gt;server/effects&#45;manager.js</title>
<path fill="none" stroke="#757575" d="M303.005,-322.891C340.041,-306.154 408.829,-275.067 450.556,-256.21"/>
<polygon fill="#757575" stroke="#757575" points="452.115,-259.346 459.787,-252.038 449.232,-252.967 452.115,-259.346"/>
</g>
<!-- server/routes/lights.js -->
<g id="node17" class="node"><title>server/routes/lights.js</title>
<path fill="none" stroke="#cfffac" d="M554.333,-210.918C554.333,-210.918 418.667,-210.918 418.667,-210.918 414.833,-210.918 411,-207.084 411,-203.251 411,-203.251 411,-195.584 411,-195.584 411,-191.751 414.833,-187.918 418.667,-187.918 418.667,-187.918 554.333,-187.918 554.333,-187.918 558.167,-187.918 562,-191.751 562,-195.584 562,-195.584 562,-203.251 562,-203.251 562,-207.084 558.167,-210.918 554.333,-210.918"/>
<text text-anchor="middle" x="486.5" y="-195.718" font-family="Arial" font-size="14.00" fill="#cfffac">server/routes/lights.js</text>
</g>
<!-- server/server.js&#45;&gt;server/routes/lights.js -->
<g id="edge26" class="edge"><title>server/server.js&#45;&gt;server/routes/lights.js</title>
<path fill="none" stroke="#757575" d="M285.929,-322.839C303.663,-299.377 347.319,-246.188 397,-219.418 400.315,-217.631 403.783,-216.004 407.346,-214.522"/>
<polygon fill="#757575" stroke="#757575" points="408.818,-217.708 416.96,-210.928 406.367,-211.151 408.818,-217.708"/>
</g>
<!-- server/routes/save&#45;css.js -->
<g id="node18" class="node"><title>server/routes/save&#45;css.js</title>
<path fill="none" stroke="#c6c5fe" d="M566.333,-110.918C566.333,-110.918 406.667,-110.918 406.667,-110.918 402.833,-110.918 399,-107.084 399,-103.251 399,-103.251 399,-95.5843 399,-95.5843 399,-91.751 402.833,-87.9177 406.667,-87.9177 406.667,-87.9177 566.333,-87.9177 566.333,-87.9177 570.167,-87.9177 574,-91.751 574,-95.5843 574,-95.5843 574,-103.251 574,-103.251 574,-107.084 570.167,-110.918 566.333,-110.918"/>
<text text-anchor="middle" x="486.5" y="-95.7177" font-family="Arial" font-size="14.00" fill="#c6c5fe">server/routes/save&#45;css.js</text>
</g>
<!-- server/server.js&#45;&gt;server/routes/save&#45;css.js -->
<g id="edge27" class="edge"><title>server/server.js&#45;&gt;server/routes/save&#45;css.js</title>
<path fill="none" stroke="#757575" d="M285.22,-322.871C303.293,-296.189 350.365,-228.692 397,-178.418 417.892,-155.896 444.482,-132.8 463.038,-117.445"/>
<polygon fill="#757575" stroke="#757575" points="465.431,-120.009 470.949,-110.964 460.995,-114.594 465.431,-120.009"/>
</g>
<!-- server/routes/scenes.js -->
<g id="node19" class="node"><title>server/routes/scenes.js</title>
<path fill="none" stroke="#cfffac" d="M560.833,-365.918C560.833,-365.918 412.167,-365.918 412.167,-365.918 408.333,-365.918 404.5,-362.084 404.5,-358.251 404.5,-358.251 404.5,-350.584 404.5,-350.584 404.5,-346.751 408.333,-342.918 412.167,-342.918 412.167,-342.918 560.833,-342.918 560.833,-342.918 564.667,-342.918 568.5,-346.751 568.5,-350.584 568.5,-350.584 568.5,-358.251 568.5,-358.251 568.5,-362.084 564.667,-365.918 560.833,-365.918"/>
<text text-anchor="middle" x="486.5" y="-350.718" font-family="Arial" font-size="14.00" fill="#cfffac">server/routes/scenes.js</text>
</g>
<!-- server/server.js&#45;&gt;server/routes/scenes.js -->
<g id="edge28" class="edge"><title>server/server.js&#45;&gt;server/routes/scenes.js</title>
<path fill="none" stroke="#757575" d="M333.514,-339.804C352.23,-341.603 373.602,-343.658 394.288,-345.647"/>
<polygon fill="#757575" stroke="#757575" points="394.085,-349.144 404.374,-346.617 394.755,-342.176 394.085,-349.144"/>
</g>
<!-- server/twitch&#45;chat.js&#45;&gt;server/config.js -->
<g id="edge31" class="edge"><title>server/twitch&#45;chat.js&#45;&gt;server/config.js</title>
<path fill="none" stroke="#757575" d="M772.675,-501.904C787.123,-498.121 802.38,-493.329 816,-487.418 848.564,-473.284 882.485,-450.308 904.234,-434.335"/>
<polygon fill="#757575" stroke="#757575" points="906.571,-436.958 912.494,-428.174 902.386,-431.347 906.571,-436.958"/>
</g>
<!-- server/twitch&#45;chat.js&#45;&gt;server/log.js -->
<g id="edge32" class="edge"><title>server/twitch&#45;chat.js&#45;&gt;server/log.js</title>
<path fill="none" stroke="#757575" d="M784.254,-504.866C795.819,-500.967 806.972,-495.384 816,-487.418 848.612,-458.64 834.514,-436.242 852,-396.418 873.627,-347.162 901.871,-290.616 916.941,-260.988"/>
<polygon fill="#757575" stroke="#757575" points="920.089,-262.519 921.518,-252.021 913.854,-259.337 920.089,-262.519"/>
</g>
<!-- server/permission&#45;manager.js -->
<g id="node16" class="node"><title>server/permission&#45;manager.js</title>
<path fill="none" stroke="#c6c5fe" d="M808.333,-210.918C808.333,-210.918 619.667,-210.918 619.667,-210.918 615.833,-210.918 612,-207.084 612,-203.251 612,-203.251 612,-195.584 612,-195.584 612,-191.751 615.833,-187.918 619.667,-187.918 619.667,-187.918 808.333,-187.918 808.333,-187.918 812.167,-187.918 816,-191.751 816,-195.584 816,-195.584 816,-203.251 816,-203.251 816,-207.084 812.167,-210.918 808.333,-210.918"/>
<text text-anchor="middle" x="714" y="-195.718" font-family="Arial" font-size="14.00" fill="#c6c5fe">server/permission&#45;manager.js</text>
</g>
<!-- server/permission&#45;manager.js&#45;&gt;server/log.js -->
<g id="edge20" class="edge"><title>server/permission&#45;manager.js&#45;&gt;server/log.js</title>
<path fill="none" stroke="#757575" d="M774.759,-210.948C804.957,-216.774 841.396,-223.805 871.108,-229.537"/>
<polygon fill="#757575" stroke="#757575" points="870.834,-233.049 881.316,-231.507 872.16,-226.176 870.834,-233.049"/>
</g>
<!-- server/routes/save&#45;css.js&#45;&gt;server/file&#45;manager.js -->
<g id="edge21" class="edge"><title>server/routes/save&#45;css.js&#45;&gt;server/file&#45;manager.js</title>
<path fill="none" stroke="#757575" d="M500.889,-87.9074C522.52,-70.1565 567.266,-36.8509 612,-24.4177 698.622,-0.34208 803.721,-12.8531 868.086,-24.9586"/>
<polygon fill="#757575" stroke="#757575" points="867.574,-28.4244 878.058,-26.8923 868.907,-21.5524 867.574,-28.4244"/>
</g>
</g>
</svg>
